<?xml version="1.0" encoding="UTF-8"?>
<!DOCTYPE svg PUBLIC "-//W3C//DTD SVG 1.1//EN" "http://www.w3.org/Graphics/SVG/1.1/DTD/svg11.dtd">
<!-- Creator: CorelDRAW X7 -->
<svg xmlns="http://www.w3.org/2000/svg" xml:space="preserve" width="900mm" height="600mm" version="1.1" style="shape-rendering:geometricPrecision; text-rendering:geometricPrecision; image-rendering:optimizeQuality; fill-rule:evenodd; clip-rule:evenodd"
viewBox="0 0 90000 60000"
 xmlns:xlink="http://www.w3.org/1999/xlink"
 aria-hidden="true"
 focusable="false"
 data-prefix="fas"
 data-icon="info-circle"
 role="img">
 <defs>
  <style type="text/css">
   <![CDATA[
    .fil0 {fill:#D9DADA}
   ]]>
  </style>
 </defs>
 <g id="Layer_x0020_1">
  <metadata id="CorelCorpID_0Corel-Layer"/>
  <g id="_1897416334368">
   <path class="fil0" d="M45000 938c-16050,0 -29062,13017 -29062,29062 0,16054 13012,29063 29062,29063 16050,0 29063,-13009 29063,-29063 0,-16045 -13013,-29062 -29063,-29062zm0 12890c2718,0 4922,2204 4922,4922 0,2718 -2204,4922 -4922,4922 -2718,0 -4922,-2204 -4922,-4922 0,-2718 2204,-4922 4922,-4922zm6563 29766c0,776 -630,1406 -1407,1406l-10312 0c-777,0 -1406,-630 -1406,-1406l0 -2813c0,-776 629,-1406 1406,-1406l1406 0 0 -7500 -1406 0c-777,0 -1406,-630 -1406,-1406l0 -2813c0,-776 629,-1406 1406,-1406l7500 0c776,0 1406,630 1406,1406l0 11719 1406 0c777,0 1407,630 1407,1406l0 2813z"/>
  </g>
 </g>
</svg>
