<?xml version="1.0" encoding="UTF-8"?>
<!DOCTYPE svg PUBLIC "-//W3C//DTD SVG 1.1//EN" "http://www.w3.org/Graphics/SVG/1.1/DTD/svg11.dtd">
<!-- Creator: CorelDRAW X7 -->
<svg xmlns="http://www.w3.org/2000/svg" xml:space="preserve" width="900mm" height="600mm" version="1.1" style="shape-rendering:geometricPrecision; text-rendering:geometricPrecision; image-rendering:optimizeQuality; fill-rule:evenodd; clip-rule:evenodd"
viewBox="0 0 90000 60000"
 xmlns:xlink="http://www.w3.org/1999/xlink"
 aria-hidden="true"
 focusable="false"
 data-prefix="fab"
 data-icon="instagram"
 role="img">
 <defs>
  <style type="text/css">
   <![CDATA[
    .fil0 {fill:#2B2A29}
   ]]>
  </style>
 </defs>
 <g id="Layer_x0020_1">
  <metadata id="CorelCorpID_0Corel-Layer"/>
  <g id="_1931834332928">
   <path class="fil0" d="M45006 16535c-7453,0 -13465,6012 -13465,13465 0,7453 6012,13465 13465,13465 7453,0 13465,-6012 13465,-13465 0,-7453 -6012,-13465 -13465,-13465zm0 22219c-4817,0 -8754,-3926 -8754,-8754 0,-4828 3926,-8754 8754,-8754 4828,0 8754,3926 8754,8754 0,4828 -3938,8754 -8754,8754zm17156 -22770c0,1746 -1406,3141 -3141,3141 -1746,0 -3140,-1406 -3140,-3141 0,-1734 1406,-3140 3140,-3140 1735,0 3141,1406 3141,3140zm8918 3188c-199,-4207 -1160,-7934 -4242,-11004 -3070,-3070 -6797,-4031 -11004,-4242 -4336,-246 -17332,-246 -21668,0 -4195,199 -7922,1160 -11004,4230 -3082,3071 -4031,6797 -4242,11004 -246,4336 -246,17332 0,21668 199,4207 1160,7934 4242,11004 3082,3070 6797,4031 11004,4242 4336,246 17332,246 21668,0 4207,-199 7934,-1160 11004,-4242 3070,-3070 4031,-6797 4242,-11004 246,-4336 246,-17320 0,-21656zm-5601 26308c-915,2297 -2684,4067 -4993,4993 -3457,1371 -11660,1054 -15480,1054 -3820,0 -12035,305 -15481,-1054 -2296,-914 -4066,-2684 -4992,-4993 -1371,-3457 -1054,-11660 -1054,-15480 0,-3820 -305,-12035 1054,-15480 914,-2297 2684,-4067 4992,-4993 3457,-1371 11661,-1054 15481,-1054 3820,0 12035,-305 15480,1054 2297,914 4067,2684 4993,4993 1371,3457 1054,11660 1054,15480 0,3820 317,12035 -1054,15480z"/>
  </g>
 </g>
</svg>
