<?xml version="1.0" encoding="UTF-8"?>
<!DOCTYPE svg PUBLIC "-//W3C//DTD SVG 1.1//EN" "http://www.w3.org/Graphics/SVG/1.1/DTD/svg11.dtd">
<!-- Creator: CorelDRAW X7 -->
<svg xmlns="http://www.w3.org/2000/svg" xml:space="preserve" width="900mm" height="600mm" version="1.1" style="shape-rendering:geometricPrecision; text-rendering:geometricPrecision; image-rendering:optimizeQuality; fill-rule:evenodd; clip-rule:evenodd"
viewBox="0 0 90000 60000"
 xmlns:xlink="http://www.w3.org/1999/xlink"
 aria-hidden="true"
 focusable="false"
 data-prefix="fab"
 data-icon="linkedin-in"
 role="img">
 <defs>
  <style type="text/css">
   <![CDATA[
    .fil0 {fill:#2B2A29}
   ]]>
  </style>
 </defs>
 <g id="Layer_x0020_1">
  <metadata id="CorelCorpID_0Corel-Layer"/>
  <g id="_1931834351136">
   <path class="fil0" d="M30502 56249l-10885 0 0 -35050 10885 0 0 35050zm-5448 -39832c-3481,0 -6304,-2882 -6304,-6363 0,-3481 2823,-6303 6304,-6303 3480,0 6303,2822 6303,6303 0,3481 -2824,6363 -6303,6363l0 0zm46184 39832l-10861 0 0 -17062c0,-4066 -82,-9281 -5659,-9281 -5659,0 -6526,4418 -6526,8988l0 17355 -10872 0 0 -35050 10439 0 0 4781 152 0c1453,-2754 5003,-5660 10298,-5660 11016,0 13041,7254 13041,16676l0 19253 -12 0z"/>
  </g>
 </g>
</svg>
