<?xml version="1.0" encoding="UTF-8"?>
<!DOCTYPE svg PUBLIC "-//W3C//DTD SVG 1.1//EN" "http://www.w3.org/Graphics/SVG/1.1/DTD/svg11.dtd">
<!-- Creator: CorelDRAW X7 -->
<svg xmlns="http://www.w3.org/2000/svg" xml:space="preserve" width="900mm" height="600mm" version="1.1" style="shape-rendering:geometricPrecision; text-rendering:geometricPrecision; image-rendering:optimizeQuality; fill-rule:evenodd; clip-rule:evenodd"
viewBox="0 0 90000 60000"
 xmlns:xlink="http://www.w3.org/1999/xlink"
 aria-hidden="true"
 focusable="false"
 data-prefix="fas"
 data-icon="envelope"
 role="img">
 <defs>
  <style type="text/css">
   <![CDATA[
    .fil0 {fill:#2B2A29}
   ]]>
  </style>
 </defs>
 <g id="Layer_x0020_1">
  <metadata id="CorelCorpID_0Corel-Layer"/>
  <g id="_1931827376528">
   <path class="fil0" d="M73863 22359c457,-363 1137,-23 1137,551l0 23965c0,3105 -2520,5625 -5625,5625l-48750 0c-3105,0 -5625,-2520 -5625,-5625l0 -23953c0,-586 668,-914 1137,-551 2625,2039 6105,4629 18058,13313 2473,1804 6645,5601 10805,5578 4184,35 8438,-3844 10816,-5578 11954,-8684 15422,-11286 18047,-13325l0 0zm-28863 15141c2719,47 6633,-3422 8602,-4852 15550,-11285 16734,-12269 20320,-15082 680,-527 1078,-1347 1078,-2214l0 -2227c0,-3105 -2520,-5625 -5625,-5625l-48750 0c-3105,0 -5625,2520 -5625,5625l0 2227c0,867 398,1675 1078,2214 3586,2801 4770,3797 20320,15082 1969,1430 5883,4899 8602,4852l0 0z"/>
  </g>
 </g>
</svg>
