<?xml version="1.0" encoding="UTF-8"?>
<!DOCTYPE svg PUBLIC "-//W3C//DTD SVG 1.1//EN" "http://www.w3.org/Graphics/SVG/1.1/DTD/svg11.dtd">
<!-- Creator: CorelDRAW X7 -->
<svg xmlns="http://www.w3.org/2000/svg" xml:space="preserve" width="900mm" height="600mm" version="1.1" style="shape-rendering:geometricPrecision; text-rendering:geometricPrecision; image-rendering:optimizeQuality; fill-rule:evenodd; clip-rule:evenodd"
viewBox="0 0 90000 60000"
 xmlns:xlink="http://www.w3.org/1999/xlink"
 aria-hidden="true"
 focusable="false"
 data-prefix="fab"
 data-icon="youtube"
 role="img">
 <defs>
  <style type="text/css">
   <![CDATA[
    .fil0 {fill:#2B2A29}
   ]]>
  </style>
 </defs>
 <g id="Layer_x0020_1">
  <metadata id="CorelCorpID_0Corel-Layer"/>
  <g id="_1931832662464">
   <path class="fil0" d="M76062 14740c-736,-2771 -2905,-4954 -5659,-5694 -4991,-1346 -25004,-1346 -25004,-1346 0,0 -20013,0 -25004,1346 -2754,740 -4923,2923 -5659,5694 -1337,5024 -1337,15505 -1337,15505 0,0 0,10481 1337,15504 736,2772 2905,4864 5659,5604 4991,1347 25004,1347 25004,1347 0,0 20013,0 25004,-1347 2754,-740 4923,-2832 5659,-5604 1337,-5023 1337,-15504 1337,-15504 0,0 0,-10481 -1337,-15505l0 0zm-37208 25021l0 -19032 16727 9516 -16727 9516 0 0z"/>
  </g>
 </g>
</svg>
